<svg width="30" height="30" viewBox="0 0 30 30" fill="none" xmlns="http://www.w3.org/2000/svg">
<rect width="30" height="30" rx="5" fill="#5E5CE6"/>
<path fill-rule="evenodd" clip-rule="evenodd" d="M10.7981 5.99609C11.1296 5.99609 11.3984 6.26484 11.3984 6.59637V8.39718H18.6016V6.59637C18.6016 6.26484 18.8704 5.99609 19.2019 5.99609C19.5334 5.99609 19.8022 6.26484 19.8022 6.59637V8.39718H22.0032C22.7767 8.39718 23.4038 9.02427 23.4038 9.79782V22.6036C23.4038 23.3772 22.7767 24.0043 22.0032 24.0043H7.99683C7.22328 24.0043 6.59619 23.3772 6.59619 22.6036V9.79782C6.59619 9.02427 7.22328 8.39718 7.99683 8.39718H10.1978V6.59637C10.1978 6.26484 10.4666 5.99609 10.7981 5.99609ZM7.99683 9.59773C7.88632 9.59773 7.79674 9.68731 7.79674 9.79782V12.399H22.2033V9.79782C22.2033 9.68731 22.1137 9.59773 22.0032 9.59773H7.99683ZM22.2033 13.5995H7.79674V22.6036C7.79674 22.7141 7.88632 22.8037 7.99683 22.8037H22.0032C22.1137 22.8037 22.2033 22.7141 22.2033 22.6036V13.5995Z" fill="white"/>
</svg>
