<svg width="30" height="30" viewBox="0 0 30 30" fill="none" xmlns="http://www.w3.org/2000/svg">
<rect width="30" height="30" rx="5" fill="#FFD60A"/>
<path d="M8.83394 24.8529C8.66912 24.7247 8.56788 24.5521 8.5302 24.3352C8.49724 24.1182 8.5302 23.8544 8.6291 23.5437L10.5575 17.4931L5.60582 13.7652C5.35623 13.5778 5.18199 13.3855 5.0831 13.1882C4.98892 12.991 4.97479 12.7888 5.04072 12.5817C5.10194 12.3795 5.22673 12.2266 5.4151 12.1231C5.60346 12.0195 5.85305 11.9702 6.16385 11.9752L12.2457 12.0121L14.1035 5.93199C14.1977 5.62133 14.3178 5.38956 14.4637 5.2367C14.6144 5.0789 14.7934 5 15.0006 5C15.2078 5 15.3844 5.0789 15.5304 5.2367C15.6763 5.38956 15.7988 5.62133 15.8977 5.93199L17.7484 12.0121L23.8302 11.9752C24.1458 11.9702 24.3953 12.0195 24.579 12.1231C24.7674 12.2266 24.8945 12.3795 24.9604 12.5817C25.0264 12.7888 25.0099 12.991 24.911 13.1882C24.8168 13.3855 24.6426 13.5778 24.3883 13.7652L19.4366 17.4931L21.365 23.5437C21.4686 23.8544 21.5016 24.1182 21.4639 24.3352C21.4262 24.5521 21.3273 24.7247 21.1672 24.8529C20.9977 24.9811 20.8093 25.0255 20.6021 24.9861C20.3949 24.9516 20.1642 24.8381 19.9099 24.6458L15.0006 20.8735L10.0842 24.6458C9.82993 24.8381 9.59918 24.9516 9.39198 24.9861C9.18478 25.0255 8.99876 24.9811 8.83394 24.8529ZM9.93589 23.27C9.95001 23.2898 9.98062 23.2824 10.0277 23.2478L14.5838 19.6382C14.7157 19.5297 14.8522 19.4755 14.9935 19.4755C15.1395 19.4755 15.2808 19.5297 15.4173 19.6382L19.9664 23.2478C20.0182 23.2824 20.0511 23.2898 20.0653 23.27C20.0747 23.2602 20.0723 23.2281 20.0582 23.1739L18.2075 17.5153C18.1698 17.4019 18.1534 17.2959 18.1581 17.1973C18.1628 17.0987 18.1887 17.0074 18.2358 16.9236C18.2829 16.8398 18.3559 16.7633 18.4547 16.6943L23.1309 13.2696C23.178 13.2351 23.1969 13.208 23.1874 13.1882C23.1827 13.1685 23.1521 13.1586 23.0956 13.1586L17.3811 13.24C17.2115 13.2449 17.0726 13.208 16.9643 13.1291C16.856 13.0502 16.7736 12.9244 16.7171 12.7518L15.0571 7.03411C15.043 6.97494 15.0241 6.94535 15.0006 6.94535C14.977 6.94535 14.9558 6.97494 14.937 7.03411L13.277 12.7518C13.2252 12.9244 13.1428 13.0502 13.0298 13.1291C12.9215 13.208 12.7826 13.2449 12.613 13.24L6.90555 13.1586C6.84904 13.1586 6.81607 13.1685 6.80665 13.1882C6.79723 13.208 6.81607 13.2351 6.86316 13.2696L11.5464 16.6943C11.6406 16.7633 11.7112 16.8398 11.7583 16.9236C11.8101 17.0074 11.836 17.0987 11.836 17.1973C11.8407 17.2959 11.8243 17.4019 11.7866 17.5153L9.93589 23.1739C9.92176 23.2281 9.92176 23.2602 9.93589 23.27Z" fill="white"/>
</svg>
