<svg width="30" height="30" viewBox="0 0 30 30" fill="none" xmlns="http://www.w3.org/2000/svg">
<rect width="30" height="30" rx="5" fill="#FF9F0A"/>
<path d="M15.8718 19.6107C15.8718 20.0955 15.4815 20.4886 15 20.4886C14.5185 20.4886 14.1281 20.0955 14.1281 19.6107C14.1281 19.1259 14.5185 18.7329 15 18.7329C15.4815 18.7329 15.8718 19.1259 15.8718 19.6107Z" fill="white"/>
<path d="M15.6539 12.3684C15.6539 12.0047 15.3611 11.71 15 11.71C14.6389 11.71 14.3461 12.0047 14.3461 12.3684V16.3187C14.3461 16.6824 14.6389 16.9771 15 16.9771C15.3611 16.9771 15.6539 16.6824 15.6539 16.3187V12.3684Z" fill="white"/>
<path fill-rule="evenodd" clip-rule="evenodd" d="M13.1132 7.09596C13.9525 5.63468 16.0475 5.63468 16.8868 7.09596L24.7039 20.7066C25.5443 22.1698 24.4957 24 22.8172 24H7.18283C5.5043 24 4.45573 22.1698 5.29605 20.7066L13.1132 7.09596ZM15.7547 7.75517C15.419 7.17067 14.581 7.17067 14.2453 7.75517L6.42812 21.3659C6.09199 21.9511 6.51142 22.6832 7.18283 22.6832H22.8172C23.4886 22.6832 23.908 21.9511 23.5719 21.3659L15.7547 7.75517Z" fill="white"/>
</svg>
