<svg width="30" height="30" viewBox="0 0 30 30" fill="none" xmlns="http://www.w3.org/2000/svg">
<rect width="30" height="30" rx="5" fill="#30D158"/>
<path d="M22.6922 7.12293C23.0058 7.43148 23.241 7.78556 23.3978 8.18516C23.5597 8.5797 23.6659 9.01977 23.7165 9.50536C23.7721 9.99095 23.8 10.5246 23.8 11.1063V18.633C23.8 19.2147 23.7721 19.7483 23.7165 20.2339C23.6659 20.7195 23.5597 21.1596 23.3978 21.5541C23.241 21.9486 23.0058 22.3027 22.6922 22.6163C22.3786 22.9299 22.022 23.1677 21.6224 23.3295C21.2228 23.4914 20.7802 23.6002 20.2946 23.6558C19.809 23.7114 19.2754 23.7393 18.6937 23.7393H11.1063C10.5246 23.7393 9.99095 23.7114 9.50536 23.6558C9.01977 23.6002 8.57717 23.4914 8.17757 23.3295C7.78303 23.1677 7.42642 22.9299 7.10776 22.6163C6.79414 22.3027 6.55894 21.9486 6.40213 21.5541C6.24532 21.1596 6.1391 20.7195 6.08346 20.2339C6.02782 19.7483 6 19.2147 6 18.633V11.0532C6 10.2135 6.06829 9.46743 6.20486 8.81491C6.34143 8.15734 6.64493 7.59588 7.11534 7.13052C7.58576 6.6601 8.14975 6.35408 8.80732 6.21245C9.4649 6.07082 10.2135 6 11.0532 6H18.6937C19.2754 6 19.809 6.02782 20.2946 6.08346C20.7802 6.1391 21.2228 6.24785 21.6224 6.40972C22.022 6.57158 22.3786 6.80932 22.6922 7.12293ZM22.457 10.8407C22.457 10.2843 22.4064 9.76586 22.3052 9.28533C22.2041 8.79974 22.0043 8.40772 21.7058 8.10929C21.4074 7.81085 21.0129 7.60852 20.5222 7.5023C20.0316 7.39608 19.5106 7.34296 18.9592 7.34296H10.8863C10.3197 7.34296 9.78609 7.39608 9.28533 7.5023C8.78962 7.60346 8.39255 7.80326 8.09411 8.1017C7.79568 8.40014 7.59588 8.79721 7.49471 9.29292C7.39355 9.78357 7.34296 10.3147 7.34296 10.8863V18.8985C7.34296 19.4499 7.39355 19.9683 7.49471 20.4539C7.59588 20.9395 7.79568 21.3315 8.09411 21.63C8.39255 21.9284 8.78709 22.1307 9.27774 22.237C9.76839 22.3432 10.2894 22.3963 10.8407 22.3963H18.9592C19.5106 22.3963 20.0316 22.3432 20.5222 22.237C21.0129 22.1358 21.4074 21.9335 21.7058 21.63C21.9992 21.3315 22.1965 20.9395 22.2977 20.4539C22.4039 19.9683 22.457 19.4499 22.457 18.8985V10.8407ZM10.4234 14.8545C10.4234 14.642 10.4892 14.47 10.6207 14.3385C10.7522 14.207 10.9242 14.1412 11.1366 14.1412H14.2019V11.0759C14.2019 10.8635 14.2652 10.6915 14.3916 10.56C14.5231 10.4234 14.6901 10.3551 14.8924 10.3551C15.0998 10.3551 15.2692 10.4234 15.4007 10.56C15.5373 10.6915 15.6056 10.8635 15.6056 11.0759V14.1412H18.6785C18.8859 14.1412 19.0553 14.207 19.1868 14.3385C19.3184 14.47 19.3841 14.642 19.3841 14.8545C19.3841 15.0517 19.3184 15.2161 19.1868 15.3476C19.0553 15.4741 18.8859 15.5373 18.6785 15.5373H15.6056V18.6102C15.6056 18.8226 15.5373 18.9946 15.4007 19.1261C15.2692 19.2577 15.0998 19.3234 14.8924 19.3234C14.6901 19.3234 14.5231 19.2577 14.3916 19.1261C14.2652 18.9896 14.2019 18.8176 14.2019 18.6102V15.5373H11.1366C10.9293 15.5373 10.7573 15.4741 10.6207 15.3476C10.4892 15.2161 10.4234 15.0517 10.4234 14.8545Z" fill="#F2F2F7"/>
</svg>
