<svg width="30" height="30" viewBox="0 0 30 30" fill="none" xmlns="http://www.w3.org/2000/svg">
<rect width="30" height="30" rx="5" fill="#FF375F"/>
<path d="M19.3203 12.7748C19.5599 12.5352 19.5599 12.1466 19.3203 11.907C19.0806 11.6674 18.6921 11.6674 18.4525 11.907L13.5682 16.7913L11.5475 14.7706C11.3079 14.531 10.9194 14.531 10.6797 14.7706C10.4401 15.0103 10.4401 15.3988 10.6797 15.6385L13.1343 18.093C13.3739 18.3326 13.7624 18.3326 14.0021 18.093L19.3203 12.7748Z" fill="#F2F2F7"/>
<path fill-rule="evenodd" clip-rule="evenodd" d="M15 6C10.0294 6 6 10.0294 6 15C6 19.9706 10.0294 24 15 24C19.9706 24 24 19.9706 24 15C24 10.0294 19.9706 6 15 6ZM7.22727 15C7.22727 10.7072 10.7072 7.22727 15 7.22727C19.2928 7.22727 22.7727 10.7072 22.7727 15C22.7727 19.2928 19.2928 22.7727 15 22.7727C10.7072 22.7727 7.22727 19.2928 7.22727 15Z" fill="#F2F2F7"/>
</svg>
