<svg width="30" height="30" viewBox="0 0 30 30" fill="none" xmlns="http://www.w3.org/2000/svg">
<rect width="30" height="30" rx="5" fill="#0A84FF"/>
<path fill-rule="evenodd" clip-rule="evenodd" d="M7.49299 8.47403C9.48203 6.51648 12.949 6.50398 14.9413 8.4647C14.9611 8.48421 14.9793 8.50472 14.9958 8.52607C16.134 7.65861 17.4438 7.00836 18.9033 7.00469C20.2113 7.0014 21.5223 7.49129 22.5208 8.47403C22.9781 8.92407 23.3581 9.41171 23.6179 10.0211C23.8772 10.6293 24.0012 11.3221 24 12.1645C23.9996 14.5563 22.3258 16.8392 20.5084 18.6635C18.7923 20.3861 16.822 21.8213 15.6228 22.6948C15.5334 22.7599 15.4483 22.8219 15.368 22.8806C15.1502 23.0398 14.8521 23.0398 14.6343 22.8806C14.554 22.8219 14.4689 22.7599 14.3795 22.6948C13.1803 21.8213 11.21 20.3861 9.49389 18.6635C7.6787 16.8415 6.00684 14.5619 6.00232 12.1734C6.00242 12.1766 6.00253 12.1798 6.00263 12.1831L6.00232 12.1637C6.00232 12.1669 6.00232 12.1701 6.00232 12.1734C5.9615 10.8404 6.45838 9.49226 7.49299 8.47403ZM14.0627 9.31286C12.5527 7.83651 9.87204 7.84539 8.36314 9.3304C7.57634 10.1047 7.19948 11.1287 7.23257 12.1443C7.23278 12.1507 7.23289 12.1572 7.23289 12.1637C7.23289 14.0405 8.58254 16.0188 10.3726 17.8156C11.965 19.414 13.7943 20.7609 15.0012 21.6408C15.5029 21.275 16.1121 20.8285 16.7673 20.3168L15.0176 18.7273C14.7679 18.5005 14.7523 18.1174 14.9828 17.8716C15.2133 17.6259 15.6025 17.6106 15.8522 17.8374L17.7288 19.5422C18.2321 19.1229 18.7444 18.6723 19.2409 18.1967L17.4755 16.5929C17.2258 16.366 17.2102 15.9829 17.4407 15.7372C17.6712 15.4915 18.0605 15.4761 18.3102 15.703L20.0995 17.3286C20.5602 16.8346 20.9827 16.3293 21.349 15.8181C21.1923 15.6636 21.0325 15.506 20.8706 15.3462C20.4319 14.9134 19.9769 14.4645 19.5201 14.0165C18.6386 13.152 17.1997 13.1674 16.3023 14.051C15.9924 14.3562 15.6809 14.6609 15.376 14.957C14.4444 15.8619 12.9549 15.8245 12.0482 14.9225C11.648 14.5242 11.2454 14.1278 10.8415 13.7302C10.6147 13.5071 10.6001 13.15 10.8079 12.9096C10.9996 12.6878 11.2033 12.4459 11.4178 12.191C12.1768 11.2894 13.0726 10.2253 14.0627 9.31286ZM22.0167 14.7621C22.49 13.8927 22.7694 13.0177 22.7694 12.1637C22.7705 11.4408 22.6643 10.9146 22.4831 10.4897C22.3025 10.066 22.0318 9.70551 21.6507 9.3304C20.893 8.58472 19.9004 8.21328 18.9065 8.21578C17.5481 8.2192 16.2476 8.98189 15.0048 10.1048C14.0396 10.9768 13.1791 11.9985 12.3975 12.9264C12.3006 13.0414 12.205 13.155 12.1105 13.2666C12.3816 13.5339 12.6528 13.8018 12.9231 14.0708C13.3661 14.5115 14.0773 14.5169 14.5116 14.095C14.8145 13.8008 15.124 13.4981 15.432 13.1949C16.7916 11.8561 19.0087 11.8052 20.3887 13.1587C20.8464 13.6075 21.3043 14.0592 21.7442 14.4932C21.8359 14.5837 21.9268 14.6734 22.0167 14.7621Z" fill="#F2F2F7"/>
</svg>
