<svg width="17" height="18" viewBox="0 0 17 18" fill="none" xmlns="http://www.w3.org/2000/svg">
<path d="M8.4668 17.4668C13.0986 17.4668 16.9336 13.6235 16.9336 9C16.9336 4.36816 13.0903 0.533203 8.4585 0.533203C3.83496 0.533203 0 4.36816 0 9C0 13.6235 3.84326 17.4668 8.4668 17.4668ZM8.4668 16.0557C4.54883 16.0557 1.41943 12.918 1.41943 9C1.41943 5.08203 4.54053 1.94434 8.4585 1.94434C12.3765 1.94434 15.5225 5.08203 15.5225 9C15.5225 12.918 12.3848 16.0557 8.4668 16.0557ZM8.39209 6.12793C8.99805 6.12793 9.47119 5.64648 9.47119 5.04053C9.47119 4.43457 8.99805 3.95312 8.39209 3.95312C7.79443 3.95312 7.31299 4.43457 7.31299 5.04053C7.31299 5.64648 7.79443 6.12793 8.39209 6.12793ZM7.01416 13.6484H10.3926C10.7329 13.6484 10.9985 13.3994 10.9985 13.0591C10.9985 12.7354 10.7329 12.478 10.3926 12.478H9.36328V8.25293C9.36328 7.80469 9.13916 7.50586 8.71582 7.50586H7.15527C6.81494 7.50586 6.54932 7.76318 6.54932 8.08691C6.54932 8.42725 6.81494 8.67627 7.15527 8.67627H8.04346V12.478H7.01416C6.67383 12.478 6.4082 12.7354 6.4082 13.0591C6.4082 13.3994 6.67383 13.6484 7.01416 13.6484Z" fill="#0A84FF"/>
</svg>
