<svg width="13" height="17" viewBox="0 0 13 17" fill="none" xmlns="http://www.w3.org/2000/svg">
<path fill-rule="evenodd" clip-rule="evenodd" d="M6.49935 15.4003C9.33254 15.4003 11.4997 13.2879 11.4997 10.6012C11.4997 9.01159 10.7972 8.2419 9.55908 6.92675C8.54064 5.84491 7.27747 4.48651 6.75055 2.22484C6.46232 2.46948 6.18075 2.77376 5.95444 3.13043C5.46727 3.89821 5.24176 4.87748 5.84011 6.15338C6.31374 7.16334 6.50988 8.58873 5.56191 9.59947C4.99725 10.2015 4.03133 10.6252 2.98306 10.1569C2.51219 9.9466 2.12252 9.59577 1.79813 9.1565C1.61688 9.56135 1.50035 10.0555 1.50034 10.6013C1.50028 13.2991 3.66443 15.4003 6.49935 15.4003ZM8.01614 0.469698C7.99999 0.175708 7.77573 -0.0610085 7.50864 0.014024C5.79932 0.49422 2.76313 3.16901 4.49817 6.86879C4.84251 7.60307 4.78272 8.16796 4.50101 8.46832C4.0395 8.9604 3.15208 8.99837 2.42664 7.10735C2.32002 6.8294 2.02672 6.67323 1.78477 6.82695C0.68293 7.52699 3.46873e-05 9.0394 1.73019e-09 10.6012C-8.31721e-05 14.3467 2.99856 17 6.49935 17C10.0001 17 13 14.3338 13 10.6012C13 8.32198 11.8726 7.12524 10.6886 5.86851C9.45766 4.56182 8.16557 3.19028 8.01614 0.469698Z" fill="#FF9F0A"/>
</svg>
