<svg width="11" height="18" viewBox="0 0 11 18" fill="none" xmlns="http://www.w3.org/2000/svg">
<path d="M2.3284 18H8.6716C10.0669 18 11 17.1157 11 15.7893V2.21068C11 0.88427 10.0669 0 8.6716 0H2.3284C0.933071 0 0 0.88427 0 2.21068V15.7893C0 17.1157 0.933071 18 2.3284 18ZM2.50817 15.7893C1.78054 15.7893 1.37821 15.4067 1.37821 14.7264V2.43174C1.37821 1.75153 1.78054 1.36892 2.50817 1.36892H8.50037C9.21946 1.36892 9.6218 1.75153 9.6218 2.43174V14.7264C9.6218 15.4067 9.21946 15.7893 8.50037 15.7893H2.50817ZM2.42716 3.03542C2.76101 3.03542 3.02673 2.77184 3.02673 2.43174C3.02673 2.10014 2.76136 1.83656 2.4275 1.83656C2.08509 1.83656 1.81937 2.10014 1.81937 2.43174C1.81937 2.77184 2.08474 3.03542 2.42716 3.03542Z" fill="#0B1314"/>
</svg>
