<svg width="14" height="14" viewBox="0 0 14 14" fill="none" xmlns="http://www.w3.org/2000/svg">
<path fill-rule="evenodd" clip-rule="evenodd" d="M8.93172 0.510742H13.0781C13.2162 0.510742 13.3281 0.622672 13.3281 0.760742V4.90719C13.3281 5.12991 13.0588 5.24146 12.9013 5.08396L11.3584 3.54107L7.60845 7.29107C7.31556 7.58396 6.84069 7.58396 6.5478 7.29107C6.25491 6.99818 6.25491 6.5233 6.5478 6.23041L10.2978 2.48041L8.75492 0.937522C8.59742 0.780032 8.70892 0.510742 8.93172 0.510742ZM2.07812 1.51074C1.11163 1.51074 0.328125 2.29424 0.328125 3.26074V11.7607C0.328125 12.7272 1.11163 13.5107 2.07812 13.5107H10.5781C11.5446 13.5107 12.3281 12.7272 12.3281 11.7607V8.26074C12.3281 7.84653 11.9923 7.51074 11.5781 7.51074C11.1639 7.51074 10.8281 7.84653 10.8281 8.26074V11.7607C10.8281 11.8988 10.7162 12.0107 10.5781 12.0107H2.07812C1.94006 12.0107 1.82812 11.8988 1.82812 11.7607V3.26074C1.82812 3.12267 1.94006 3.01074 2.07812 3.01074H5.57812C5.99233 3.01074 6.32812 2.67495 6.32812 2.26074C6.32812 1.84653 5.99233 1.51074 5.57812 1.51074H2.07812Z" fill="#838388"/>
</svg>
