<svg width="30" height="30" viewBox="0 0 30 30" fill="none" xmlns="http://www.w3.org/2000/svg">
<path d="M17.7267 28.3459C17.0561 28.8333 16.496 29.2112 16.1015 29.4685C15.8926 29.6047 15.682 29.7372 15.4702 29.8671L15.4688 29.8679L15.4672 29.8689C15.1739 30.0437 14.8261 30.0437 14.5328 29.8689C14.3193 29.7399 14.1083 29.6053 13.8985 29.4685C13.504 29.2112 12.9439 28.8333 12.2733 28.3459C10.9342 27.3727 9.14385 25.955 7.34838 24.1807C3.8201 20.6939 0 15.5627 0 9.51872C0 4.03953 3.85777 0 7.82248 0C10.9497 0 13.4738 1.94096 15 4.91459C16.5262 1.94096 19.0503 0 22.1775 0C26.1422 0 30 4.03953 30 9.51872C30 15.5627 26.1799 20.6939 22.6516 24.1807C20.8561 25.955 19.0658 27.3727 17.7267 28.3459Z" fill="#FF453A"/>
</svg>
