<svg width="11" height="18" viewBox="0 0 11 18" fill="none" xmlns="http://www.w3.org/2000/svg">
<path d="M2.29959 17.8979H8.5643C9.94233 17.8979 10.8639 17.0187 10.8639 15.6998V2.19815C10.8639 0.879257 9.94233 0 8.5643 0H2.29959C0.921526 0 0 0.879257 0 2.19815V15.6998C0 17.0187 0.921526 17.8979 2.29959 17.8979ZM2.47713 16.5368C1.75851 16.5368 1.36116 16.1563 1.36116 15.48V2.41795C1.36116 1.7416 1.75851 1.36116 2.47713 1.36116H8.3952C9.10538 1.36116 9.50275 1.7416 9.50275 2.41795V15.48C9.50275 16.1563 9.10538 16.5368 8.3952 16.5368H2.47713ZM3.64384 15.9196H7.23692C7.46526 15.9196 7.62585 15.759 7.62585 15.5222C7.62585 15.2855 7.46526 15.1334 7.23692 15.1334H3.64384C3.41558 15.1334 3.24649 15.2855 3.24649 15.5222C3.24649 15.759 3.41558 15.9196 3.64384 15.9196ZM4.41319 3.22112H6.45915C6.78888 3.22112 7.05096 2.95903 7.05096 2.62086C7.05096 2.29114 6.78888 2.02905 6.45915 2.02905H4.41319C4.07502 2.02905 3.81293 2.29114 3.81293 2.62086C3.81293 2.95903 4.07502 3.22112 4.41319 3.22112Z" fill="#0B1314"/>
</svg>
