<svg width="14" height="16" viewBox="0 0 14 16" fill="none" xmlns="http://www.w3.org/2000/svg">
<path d="M5.19064 13.565C5.30932 13.565 5.40462 13.5308 5.47655 13.4625C5.54848 13.3941 5.58264 13.3042 5.57904 13.1927L5.34708 5.40857C5.34708 5.29708 5.30932 5.20897 5.2338 5.14424C5.16187 5.07951 5.07197 5.04714 4.96408 5.04714C4.8418 5.04714 4.7447 5.08131 4.67278 5.14963C4.60445 5.21437 4.57208 5.30248 4.57568 5.41396L4.79685 13.1981C4.80404 13.3096 4.8418 13.3977 4.91013 13.4625C4.98206 13.5308 5.07556 13.565 5.19064 13.565ZM7.31605 13.565C7.43473 13.565 7.53003 13.5308 7.60196 13.4625C7.67748 13.3941 7.71524 13.3042 7.71524 13.1927V5.41396C7.71524 5.30248 7.67748 5.21437 7.60196 5.14963C7.53003 5.08131 7.43473 5.04714 7.31605 5.04714C7.19737 5.04714 7.10027 5.08131 7.02475 5.14963C6.95283 5.21437 6.91686 5.30248 6.91686 5.41396V13.1927C6.91686 13.3042 6.95283 13.3941 7.02475 13.4625C7.10027 13.5308 7.19737 13.565 7.31605 13.565ZM9.43606 13.565C9.55474 13.565 9.64825 13.5326 9.71658 13.4679C9.7885 13.4031 9.82626 13.3132 9.82986 13.1981L10.051 5.41936C10.0546 5.30787 10.0205 5.21796 9.94854 5.14963C9.88021 5.08131 9.7867 5.04714 9.66803 5.04714C9.55654 5.04714 9.46484 5.07951 9.39291 5.14424C9.32098 5.20897 9.28322 5.29888 9.27963 5.41396L9.05306 13.1981C9.04946 13.306 9.08183 13.3941 9.15016 13.4625C9.22208 13.5308 9.31739 13.565 9.43606 13.565ZM4.31135 3.33171V1.7943C4.31135 1.31239 4.457 0.934783 4.7483 0.661465C5.0432 0.384551 5.44778 0.246094 5.96205 0.246094H8.65387C9.16814 0.246094 9.57093 0.384551 9.86222 0.661465C10.1571 0.934783 10.3046 1.31239 10.3046 1.7943V3.33171H9.36054V1.84824C9.36054 1.63246 9.29221 1.45984 9.15555 1.33038C9.0189 1.20091 8.83369 1.13618 8.59993 1.13618H6.01599C5.78223 1.13618 5.59703 1.20091 5.46037 1.33038C5.32371 1.45984 5.25538 1.63246 5.25538 1.84824V3.33171H4.31135ZM1.07469 3.80103C0.956014 3.80103 0.851721 3.75787 0.761814 3.67156C0.671907 3.58165 0.626953 3.47556 0.626953 3.35329C0.626953 3.23101 0.671907 3.12492 0.761814 3.03502C0.851721 2.94511 0.956014 2.90016 1.07469 2.90016H13.552C13.6743 2.90016 13.7786 2.94511 13.8649 3.03502C13.9548 3.12133 13.9998 3.22742 13.9998 3.35329C13.9998 3.47556 13.9566 3.58165 13.8703 3.67156C13.784 3.75787 13.6779 3.80103 13.552 3.80103H1.07469ZM4.14952 15.6526C3.83305 15.6526 3.55433 15.5879 3.31338 15.4584C3.07603 15.3289 2.88722 15.1473 2.74697 14.9136C2.60671 14.6798 2.52939 14.4083 2.51501 14.099L2.00253 3.66077H12.6296L12.1171 14.0936C12.1027 14.4029 12.0236 14.6744 11.8797 14.9082C11.7395 15.1419 11.5489 15.3235 11.3079 15.453C11.0706 15.5861 10.7973 15.6526 10.488 15.6526H4.14952Z" fill="#FF453A"/>
</svg>
