<svg width="7" height="12" viewBox="0 0 7 12" fill="none" xmlns="http://www.w3.org/2000/svg">
<path d="M6.94775 6.00049C6.94775 6.14437 6.92008 6.27718 6.86475 6.39893C6.80941 6.52067 6.72363 6.63965 6.60742 6.75586L1.63525 11.6782C1.45264 11.8608 1.23128 11.9521 0.971191 11.9521C0.700033 11.9521 0.470378 11.8608 0.282227 11.6782C0.0940755 11.4901 0 11.2632 0 10.9976C0 10.7319 0.102376 10.4967 0.307129 10.292L4.66504 6.00049L0.307129 1.70898C0.102376 1.50423 0 1.26904 0 1.00342C0 0.737793 0.0940755 0.513672 0.282227 0.331055C0.470378 0.142904 0.700033 0.0488281 0.971191 0.0488281C1.23128 0.0488281 1.45264 0.140137 1.63525 0.322754L6.60742 5.24512C6.83431 5.46094 6.94775 5.71273 6.94775 6.00049Z" fill="#BCBCC1"/>
</svg>
