<svg width="24" height="24" viewBox="0 0 24 24" fill="none" xmlns="http://www.w3.org/2000/svg">
<circle cx="12" cy="12" r="12" fill="#C5C5C5"/>
<path d="M8.50849 7.25882C8.1634 6.91373 7.6039 6.91373 7.25882 7.25882C6.91373 7.6039 6.91373 8.1634 7.25882 8.50849L10.7503 12L7.25882 15.4915C6.91373 15.8366 6.91373 16.3961 7.25882 16.7412C7.6039 17.0863 8.1634 17.0863 8.50849 16.7412L12 13.2497L15.4915 16.7412C15.8366 17.0863 16.3961 17.0863 16.7412 16.7412C17.0863 16.3961 17.0863 15.8366 16.7412 15.4915L13.2497 12L16.7412 8.50849C17.0863 8.1634 17.0863 7.6039 16.7412 7.25882C16.3961 6.91373 15.8366 6.91373 15.4915 7.25882L12 10.7503L8.50849 7.25882Z" fill="#8A8A8E"/>
</svg>
