<svg width="21" height="18" viewBox="0 0 21 18" fill="none" xmlns="http://www.w3.org/2000/svg">
<path d="M0.29943 8.42083C2.3673 7.2908 4.6756 6.34762 6.83236 5.39964C10.5428 3.84692 14.268 2.32112 18.0308 0.900608C18.7629 0.658582 20.0784 0.421924 20.2073 1.49827C20.1367 3.02188 19.8461 4.53657 19.6469 6.05126C19.1411 9.3822 18.5564 12.7017 17.9863 16.0217C17.7899 17.1276 16.3935 17.7001 15.5001 16.9924C13.3529 15.5535 11.1892 14.1285 9.06944 12.6562C8.37507 11.9563 9.01897 10.951 9.63911 10.4511C11.4076 8.72203 13.2831 7.25296 14.9591 5.43452C15.4113 4.35139 14.0754 5.26421 13.6348 5.54393C11.2137 7.19917 8.85191 8.95546 6.29935 10.4102C4.99551 11.1223 3.47586 10.5137 2.1726 10.1164C1.0041 9.63642 -0.708237 9.15282 0.299312 8.42097L0.29943 8.42083Z" fill="white"/>
</svg>
