<svg width="7" height="12" viewBox="0 0 7 12" fill="none" xmlns="http://www.w3.org/2000/svg">
<path d="M1.31827 11.0669H4.90961C5.69958 11.0669 6.22788 10.5691 6.22788 9.82236V2.17812C6.22788 1.4314 5.69958 0.933594 4.90961 0.933594H1.31827C0.528278 0.933594 0 1.4314 0 2.17812V9.82236C0 10.5691 0.528278 11.0669 1.31827 11.0669ZM1.42005 9.82236C1.00809 9.82236 0.780303 9.60694 0.780303 9.22401V2.30257C0.780303 1.91964 1.00809 1.70424 1.42005 1.70424H4.81266C5.21979 1.70424 5.44759 1.91964 5.44759 2.30257V9.22401C5.44759 9.60694 5.21979 9.82236 4.81266 9.82236H1.42005ZM1.37418 2.64242C1.56321 2.64242 1.71365 2.49403 1.71365 2.30257C1.71365 2.11589 1.5634 1.96751 1.37438 1.96751C1.18052 1.96751 1.03008 2.11589 1.03008 2.30257C1.03008 2.49403 1.18032 2.64242 1.37418 2.64242Z" fill="black"/>
</svg>
