<svg width="7" height="12" viewBox="0 0 7 12" fill="none" xmlns="http://www.w3.org/2000/svg">
<path d="M1.30196 11.0669H4.84886C5.62906 11.0669 6.15082 10.5691 6.15082 9.82236V2.17812C6.15082 1.4314 5.62906 0.933594 4.84886 0.933594H1.30196C0.521741 0.933594 0 1.4314 0 2.17812V9.82236C0 10.5691 0.521741 11.0669 1.30196 11.0669ZM1.40248 10.2963C0.995619 10.2963 0.770648 10.0808 0.770648 9.6979V2.30257C0.770648 1.91964 0.995619 1.70424 1.40248 1.70424H4.75312C5.1552 1.70424 5.38018 1.91964 5.38018 2.30257V9.6979C5.38018 10.0808 5.1552 10.2963 4.75312 10.2963H1.40248ZM2.06304 9.94682H4.09734C4.22661 9.94682 4.31754 9.8559 4.31754 9.72184C4.31754 9.58782 4.22661 9.50168 4.09734 9.50168H2.06304C1.9338 9.50168 1.83807 9.58782 1.83807 9.72184C1.83807 9.8559 1.9338 9.94682 2.06304 9.94682ZM2.49862 2.7573H3.65698C3.84367 2.7573 3.99205 2.60891 3.99205 2.41745C3.99205 2.23077 3.84367 2.08239 3.65698 2.08239H2.49862C2.30716 2.08239 2.15877 2.23077 2.15877 2.41745C2.15877 2.60891 2.30716 2.7573 2.49862 2.7573Z" fill="black"/>
</svg>
