<svg width="12" height="12" viewBox="0 0 12 12" fill="none" xmlns="http://www.w3.org/2000/svg">
<path fill-rule="evenodd" clip-rule="evenodd" d="M0 1.79935C0 1.16048 0.517898 0.642578 1.15676 0.642578H10.2891C10.9279 0.642578 11.4458 1.16048 11.4458 1.79935V7.27878C11.4458 7.91764 10.9279 8.43555 10.2891 8.43555H7.43225L7.44494 8.56885C7.52034 9.36103 7.84237 9.99147 8.41839 10.6515C8.52828 10.7774 8.55443 10.9559 8.48528 11.1081C8.41612 11.2602 8.26442 11.3579 8.0973 11.3579H3.34851C3.18139 11.3579 3.02969 11.2602 2.96053 11.1081C2.89138 10.9559 2.91753 10.7774 3.02742 10.6515C3.60344 9.99147 3.92547 9.36103 4.00087 8.56885L4.01356 8.43555H1.15676C0.517898 8.43555 0 7.91764 0 7.27878V1.79935ZM1.15676 1.49493C0.988637 1.49493 0.852348 1.63122 0.852348 1.79935V7.27878C0.852348 7.4469 0.988637 7.58319 1.15676 7.58319H10.2891C10.4572 7.58319 10.5935 7.4469 10.5935 7.27878V1.79935C10.5935 1.63122 10.4572 1.49493 10.2891 1.49493H1.15676ZM6.57974 8.43555H4.86607L4.85785 8.54847C4.80935 9.21467 4.62296 9.78851 4.315 10.323L4.20982 10.5056H7.23599L7.13081 10.323C6.82285 9.78851 6.63646 9.21467 6.58796 8.54847L6.57974 8.43555Z" fill="black"/>
</svg>
