<svg width="24" height="24" viewBox="0 0 24 24" fill="none" xmlns="http://www.w3.org/2000/svg">
<rect width="24" height="24" rx="5" fill="#0A84FF"/>
<path d="M13.75 13.4583C13.75 13.1132 14.0438 12.8333 14.4062 12.8333H15.7188C16.0812 12.8333 16.375 13.1132 16.375 13.4583C16.375 13.8035 16.0812 14.0833 15.7188 14.0833H14.4062C14.0438 14.0833 13.75 13.8035 13.75 13.4583Z" fill="white"/>
<path fill-rule="evenodd" clip-rule="evenodd" d="M6.53125 7C5.68556 7 5 7.65292 5 8.45833V15.5417C5 16.3471 5.68556 17 6.53125 17H17.4688C18.3144 17 19 16.3471 19 15.5417V8.45833C19 7.65292 18.3144 7 17.4688 7H6.53125ZM17.6875 9.5V8.45833C17.6875 8.34327 17.5896 8.25 17.4688 8.25H6.53125C6.41044 8.25 6.3125 8.34327 6.3125 8.45833V9.5H17.6875ZM6.3125 10.75H17.6875V15.5417C17.6875 15.6567 17.5896 15.75 17.4688 15.75H6.53125C6.41044 15.75 6.3125 15.6567 6.3125 15.5417V10.75Z" fill="white"/>
</svg>
