<svg width="30" height="30" viewBox="0 0 30 30" fill="none" xmlns="http://www.w3.org/2000/svg">
<rect width="30" height="30" rx="5" fill="#0A84FF"/>
<path fill-rule="evenodd" clip-rule="evenodd" d="M7.9166 11.6316C7.9166 9.07364 9.97061 7 12.5044 7C15.0382 7 17.0922 9.07364 17.0922 11.6316C17.0922 13.2227 16.2974 14.6265 15.0868 15.4603C17.8933 16.4982 19.9149 19.1793 20.0083 22.3496C20.0186 22.6983 19.747 22.9893 19.4016 22.9997C19.0563 23.0101 18.7679 22.7359 18.7577 22.3872C18.6575 18.988 15.896 16.2632 12.5043 16.2632C9.11265 16.2632 6.35118 18.988 6.25096 22.3872C6.24068 22.7359 5.95238 23.0101 5.60701 22.9997C5.26165 22.9893 4.99 22.6983 5.00028 22.3496C5.09375 19.1793 7.1154 16.4981 9.92196 15.4603C8.71135 14.6264 7.9166 13.2227 7.9166 11.6316ZM12.5044 8.26316C10.6617 8.26316 9.16783 9.77124 9.16783 11.6316C9.16783 13.4919 10.6617 15 12.5044 15C14.3471 15 15.841 13.4919 15.841 11.6316C15.841 9.77124 14.3471 8.26316 12.5044 8.26316Z" fill="#F2F2F7"/>
<path d="M19.4195 11.6316C19.2964 11.6316 19.1756 11.6404 19.0577 11.6574C18.7157 11.7068 18.3988 11.4669 18.3498 11.1217C18.3009 10.7764 18.5385 10.4564 18.8806 10.407C19.0569 10.3815 19.2369 10.3684 19.4195 10.3684C21.5065 10.3684 23.1982 12.0763 23.1982 14.1832C23.1982 15.426 22.6094 16.5292 21.6998 17.2252C23.6446 18.1053 25 20.0764 25 22.3684C25 22.7172 24.7199 23 24.3744 23C24.0289 23 23.7488 22.7172 23.7488 22.3684C23.7488 20.3929 22.45 18.722 20.6661 18.1816L20.2203 18.0466V16.6352L20.5625 16.4597C21.3854 16.0376 21.947 15.176 21.947 14.1832C21.947 12.7739 20.8154 11.6316 19.4195 11.6316Z" fill="#F2F2F7"/>
</svg>
