<svg width="30" height="30" viewBox="0 0 30 30" fill="none" xmlns="http://www.w3.org/2000/svg">
<rect width="30" height="30" rx="5" fill="#5E5CE6"/>
<path d="M15.0884 16.6471H13.7529C13.6752 16.6474 13.6009 16.6177 13.5486 16.5654C13.4963 16.5131 13.4709 16.4431 13.4787 16.3728L13.5966 15.151C13.6081 15.0211 13.7276 14.9212 13.8708 14.9216H15.2063C15.284 14.9212 15.3583 14.9509 15.4105 15.0032C15.4628 15.0555 15.4883 15.1255 15.4805 15.1959L15.3626 16.4177C15.3511 16.5475 15.2316 16.6475 15.0884 16.6471ZM15.3024 14.2549H13.9421C13.7919 14.2549 13.6701 14.1359 13.6701 13.9891L14.0401 9.86136C14.0567 9.72714 14.1737 9.62648 14.3121 9.62746H15.6724C15.8226 9.62746 15.9444 9.74646 15.9444 9.89325L15.5636 14.0237C15.5463 14.1529 15.4357 14.2508 15.3024 14.2549ZM23.3006 9.44138C23.4454 9.61193 23.5161 9.83398 23.4969 10.0576L22.9652 16.1899C22.9482 16.3905 22.86 16.5781 22.7168 16.7184L18.369 20.977C18.2137 21.1284 18.0061 21.2129 17.7901 21.2124H13.1615L9.08698 25L9.40251 21.2099H7.33046C7.09775 21.2101 6.87564 21.1117 6.71833 20.9388C6.56101 20.7659 6.48293 20.5344 6.50314 20.3006L7.76773 5.75151C7.81112 5.32393 8.16878 4.99906 8.59506 5H19.1466C19.3893 4.99993 19.6199 5.10703 19.7777 5.29309L23.3006 9.44138ZM20.0783 15.02L20.4162 11.235C20.4293 11.0106 20.3523 10.7903 20.2025 10.6237L18.2149 8.30912C18.0574 8.12625 17.829 8.02117 17.5888 8.02104H11.328C10.9017 8.0201 10.544 8.34497 10.5006 8.77255L9.75531 17.2896C9.73815 17.5226 9.81727 17.7524 9.97394 17.9246C10.1306 18.0968 10.3509 18.1961 10.5826 18.1989H16.7391C16.9527 18.1994 17.1583 18.1169 17.3131 17.9684L19.8298 15.5511C19.9736 15.4102 20.0618 15.2215 20.0783 15.02Z" fill="white"/>
</svg>
