<svg width="30" height="30" viewBox="0 0 30 30" fill="none" xmlns="http://www.w3.org/2000/svg">
<rect width="30" height="30" rx="5" fill="#FF9F0A"/>
<path d="M20.6808 11.3361C20.4768 9.25767 18.684 8.56311 16.422 8.36752L16.4158 5.48427L14.6636 5.48672L14.6698 8.29402C14.2092 8.29456 13.7384 8.3043 13.2706 8.31423L13.2648 5.48829L11.5137 5.49048L11.5193 8.37294C11.1401 8.3812 10.7675 8.38881 10.4043 8.38944L10.404 8.38042L7.98748 8.38257L7.99197 10.257C7.99197 10.257 9.28577 10.2308 9.26433 10.2545C9.97392 10.2538 10.2059 10.6663 10.274 11.0223L10.2811 14.307C10.33 14.3071 10.3939 14.3091 10.4664 14.3191C10.4079 14.3192 10.3456 14.3189 10.2812 14.3196L10.2906 18.9211C10.2601 19.1449 10.1296 19.5019 9.63368 19.5033C9.65623 19.5231 8.36009 19.5046 8.36009 19.5046L8.01637 21.6011L10.2965 21.5981C10.7209 21.5982 11.1384 21.6049 11.5484 21.6068L11.5554 24.5229L13.3056 24.5209L13.2993 21.6356C13.7799 21.645 14.2449 21.6482 14.6991 21.6473L14.7044 24.5192L16.4567 24.5168L16.4508 21.6058C19.3962 21.4328 21.4563 20.687 21.7062 17.9157C21.9081 15.6844 20.8583 14.6902 19.1854 14.2901C20.2002 13.7706 20.8334 12.8569 20.6814 11.3362L20.6808 11.3359L20.6808 11.3361ZM18.2428 17.5745C18.2485 19.7537 14.5228 19.5106 13.3353 19.5132L13.3275 15.6495C14.5152 15.6483 18.2381 15.3015 18.2429 17.5745L18.2428 17.5745ZM17.4162 12.1243C17.42 14.1069 14.3127 13.8795 13.3236 13.8808L13.3163 10.3767C14.3054 10.3754 17.4116 10.0565 17.4163 12.1243L17.4162 12.1243Z" fill="white"/>
</svg>
