<svg width="21" height="24" viewBox="0 0 21 24" fill="none" xmlns="http://www.w3.org/2000/svg">
<path d="M11.5 11.8941C12.0978 11.5482 12.5 10.9019 12.5 10.1616C12.5 9.05705 11.6046 8.16162 10.5 8.16162C9.39543 8.16162 8.5 9.05705 8.5 10.1616C8.5 10.9019 8.9022 11.5482 9.5 11.8941V14.6616C9.5 15.2139 9.94772 15.6616 10.5 15.6616C11.0523 15.6616 11.5 15.2139 11.5 14.6616L11.5 11.8941Z" fill="#0A84FF"/>
<path fill-rule="evenodd" clip-rule="evenodd" d="M9.96012 0.798251C10.311 0.684437 10.689 0.684437 11.0399 0.798251L19.2899 3.47393C20.0108 3.70773 20.5 4.3787 20.5 5.13783V10.1616C20.5 16.3509 16.7292 20.8665 11.099 22.9909C10.7134 23.1365 10.2866 23.1365 9.901 22.9909C4.2708 20.8665 0.500005 16.3509 0.5 10.1616V5.13755C0.5 4.37817 0.989472 3.70765 1.71012 3.47393L9.96012 0.798251ZM10.5771 2.22508C10.527 2.20883 10.473 2.20883 10.4229 2.22508L2.17287 4.90076C2.06895 4.93446 2 5.03009 2 5.13755L2 10.1616C2 15.623 5.28075 19.6444 10.4305 21.5875C10.4749 21.6043 10.5251 21.6043 10.5695 21.5875C15.7193 19.6444 19 15.623 19 10.1616V5.13783C19 5.03012 18.9308 4.93439 18.8271 4.90076L10.5771 2.22508Z" fill="#0A84FF"/>
</svg>
