<svg width="25" height="19" viewBox="0 0 25 19" fill="none" xmlns="http://www.w3.org/2000/svg">
<path d="M15.4165 11.0996C15.0023 11.0996 14.6665 11.4354 14.6665 11.8496C14.6665 12.2638 15.0023 12.5996 15.4165 12.5996H18.9165C19.3307 12.5996 19.6665 12.2638 19.6665 11.8496C19.6665 11.4354 19.3307 11.0996 18.9165 11.0996H15.4165Z" fill="#8A8A8E"/>
<path fill-rule="evenodd" clip-rule="evenodd" d="M1.9165 0.0996094C0.950006 0.0996094 0.166504 0.883111 0.166504 1.84961V16.3496C0.166504 17.3161 0.950006 18.0996 1.9165 18.0996H22.4165C23.383 18.0996 24.1665 17.3161 24.1665 16.3496V1.84961C24.1665 0.883111 23.383 0.0996094 22.4165 0.0996094H1.9165ZM1.6665 1.84961C1.6665 1.71154 1.77843 1.59961 1.9165 1.59961H22.4165C22.5546 1.59961 22.6665 1.71154 22.6665 1.84961V5.59961H1.6665V1.84961ZM1.6665 7.09961V16.3496C1.6665 16.4877 1.77843 16.5996 1.9165 16.5996H22.4165C22.5546 16.5996 22.6665 16.4877 22.6665 16.3496V7.09961H1.6665Z" fill="#8A8A8E"/>
</svg>
