<svg width="23" height="23" viewBox="0 0 23 23" fill="none" xmlns="http://www.w3.org/2000/svg">
<path d="M11.8319 1.59961C8.01474 1.59961 4.72177 3.8503 3.21095 7.09961H5.5835C5.99771 7.09961 6.3335 7.4354 6.3335 7.84961C6.3335 8.26382 5.99771 8.59961 5.5835 8.59961H1.8335C1.28121 8.59961 0.833496 8.15189 0.833496 7.59961V3.84961C0.833496 3.4354 1.16928 3.09961 1.5835 3.09961C1.99771 3.09961 2.3335 3.4354 2.3335 3.84961V5.54614C4.24263 2.28869 7.78095 0.0996094 11.8319 0.0996094C17.9078 0.0996094 22.8335 5.02437 22.8335 11.0996C22.8335 17.1749 17.9078 22.0996 11.8319 22.0996C5.84788 22.0996 0.979709 17.3228 0.833726 11.3743C0.823564 10.9602 1.15101 10.6162 1.5651 10.6061C1.97919 10.5959 2.32311 10.9234 2.33327 11.3375C2.45933 16.4739 6.66377 20.5996 11.8319 20.5996C17.0796 20.5996 21.3335 16.3462 21.3335 11.0996C21.3335 5.85301 17.0796 1.59961 11.8319 1.59961Z" fill="#8A8A8E"/>
<path d="M12.3335 6.34961C12.3335 5.9354 11.9977 5.59961 11.5835 5.59961C11.1693 5.59961 10.8335 5.9354 10.8335 6.34961V11.8496C10.8335 12.1188 10.9777 12.3673 11.2114 12.5008L14.7114 14.5008C15.071 14.7063 15.5292 14.5814 15.7347 14.2217C15.9402 13.8621 15.8152 13.4039 15.4556 13.1984L12.3335 11.4144V6.34961Z" fill="#8A8A8E"/>
</svg>
