<svg width="23" height="23" viewBox="0 0 23 23" fill="none" xmlns="http://www.w3.org/2000/svg">
<path d="M14.2804 2.75252C15.8176 1.21531 18.3099 1.21531 19.8471 2.75252C21.3843 4.28974 21.3843 6.78206 19.8471 8.31928L16.2197 11.9467C14.6825 13.4839 12.1902 13.4839 10.6529 11.9467C10.5399 11.8337 10.4354 11.7158 10.3394 11.5937C10.0831 11.2682 9.61161 11.2121 9.28613 11.4683C8.96066 11.7245 8.90451 12.196 9.16071 12.5215C9.29339 12.6901 9.43727 12.8523 9.59228 13.0074C11.7153 15.1304 15.1574 15.1304 17.2804 13.0074L20.9078 9.37994C23.0308 7.25694 23.0308 3.81487 20.9078 1.69186C18.7848 -0.431141 15.3427 -0.431142 13.2197 1.69186L10.2197 4.6919C9.92677 4.98479 9.92677 5.45967 10.2197 5.75256C10.5126 6.04545 10.9874 6.04545 11.2803 5.75256L14.2804 2.75252Z" fill="#8A8A8E"/>
<path d="M6.78033 10.2525C8.31755 8.71531 10.8099 8.71531 12.3471 10.2525C12.4601 10.3656 12.5647 10.4835 12.6607 10.6055C12.9169 10.9309 13.3884 10.9871 13.7139 10.7309C14.0394 10.4747 14.0955 10.0031 13.8393 9.67766C13.7066 9.50906 13.5627 9.34681 13.4077 9.19186C11.2847 7.06886 7.84267 7.06886 5.71967 9.19186L2.09225 12.8193C-0.030751 14.9423 -0.030751 18.3844 2.09225 20.5074C4.21526 22.6304 7.65733 22.6304 9.78033 20.5074L12.7803 17.5074C13.0732 17.2145 13.0732 16.7396 12.7803 16.4467C12.4874 16.1538 12.0126 16.1538 11.7197 16.4467L8.71967 19.4467C7.18245 20.9839 4.69013 20.9839 3.15291 19.4467C1.6157 17.9095 1.6157 15.4172 3.15291 13.8799L6.78033 10.2525Z" fill="#8A8A8E"/>
</svg>
