<svg width="24" height="24" viewBox="0 0 24 24" fill="none" xmlns="http://www.w3.org/2000/svg">
<rect width="24" height="24" rx="5" fill="#0A84FF"/>
<path fill-rule="evenodd" clip-rule="evenodd" d="M5.74416 6.69765C7.40169 5.10714 10.2908 5.09698 11.9511 6.69007C11.9676 6.70592 11.9827 6.72259 11.9965 6.73993C12.945 6.03512 14.0365 5.50679 15.2528 5.50381C16.3427 5.50114 17.4352 5.89917 18.2674 6.69765C18.6484 7.0633 18.9651 7.45952 19.1816 7.95465C19.3976 8.4488 19.501 9.01173 19.5 9.69619C19.4997 11.6395 18.1049 13.4944 16.5903 14.9766C15.1602 16.3762 13.5183 17.5423 12.519 18.2521C12.4445 18.3049 12.3736 18.3553 12.3067 18.403C12.1251 18.5323 11.8768 18.5323 11.6953 18.403C11.6283 18.3553 11.5574 18.3049 11.483 18.2521C10.4836 17.5423 8.84168 16.3762 7.41157 14.9766C5.89892 13.4962 4.5057 11.644 4.50194 9.70336C4.50202 9.70599 4.50211 9.70862 4.50219 9.71125L4.50193 9.69548C4.50193 9.6981 4.50193 9.70073 4.50194 9.70336C4.46792 8.62033 4.88198 7.52496 5.74416 6.69765ZM11.2189 7.3792C9.96059 6.17966 7.7267 6.18688 6.46928 7.39345C5.81362 8.0226 5.49956 8.85454 5.52715 9.6797C5.52732 9.68496 5.52741 9.69022 5.52741 9.69548C5.52741 11.2204 6.65212 12.8278 8.14381 14.2877C9.4708 15.5864 10.9952 16.6807 12.001 17.3957C12.4191 17.0985 12.9268 16.7357 13.4727 16.3199L12.0146 15.0284C11.8066 14.8441 11.7936 14.5329 11.9857 14.3332C12.1777 14.1335 12.5021 14.1211 12.7102 14.3054L14.274 15.6905C14.6934 15.3498 15.1203 14.9838 15.5341 14.5973L14.0629 13.2942C13.8548 13.1099 13.8419 12.7986 14.0339 12.599C14.226 12.3993 14.5504 12.3869 14.7585 12.5712L16.2496 13.8919C16.6335 13.4906 16.9855 13.08 17.2909 12.6647C17.1602 12.5391 17.0271 12.4111 16.8921 12.2813C16.5266 11.9297 16.1474 11.5649 15.7667 11.2009C15.0322 10.4985 13.8331 10.511 13.0853 11.229C12.827 11.4769 12.5674 11.7244 12.3133 11.9651C11.537 12.7003 10.2957 12.6699 9.5402 11.937C9.20664 11.6134 8.87117 11.2913 8.53455 10.9683C8.34562 10.787 8.33344 10.4969 8.50658 10.3016C8.66637 10.1214 8.83606 9.92481 9.01486 9.71772C9.64737 8.98513 10.3938 8.12057 11.2189 7.3792ZM17.8473 11.8067C18.2416 11.1003 18.4745 10.3894 18.4745 9.69548V9.69476C18.4754 9.10747 18.3869 8.68064 18.2359 8.33537C18.0854 7.99109 17.8599 7.69822 17.5422 7.39345C16.9108 6.78758 16.0836 6.48579 15.2554 6.48782C14.1234 6.4906 13.0396 7.11029 12.004 8.02265C11.1997 8.73117 10.4826 9.56124 9.83122 10.3152C9.7505 10.4086 9.6708 10.5009 9.59206 10.5916C9.81802 10.8088 10.044 11.0265 10.2692 11.245C10.6384 11.6031 11.231 11.6075 11.593 11.2647C11.8454 11.0257 12.1033 10.7797 12.36 10.5333C13.493 9.44559 15.3406 9.40425 16.4906 10.5039C16.872 10.8686 17.2536 11.2356 17.6202 11.5883C17.6966 11.6617 17.7723 11.7346 17.8473 11.8067Z" fill="#F2F2F7"/>
</svg>
